:SAMPLES-PER-SECOND 30
:FULLY-SPECIFIED
:DEGREES
43
root  34.78445218 36.50693518 -14.92555723 8.207623482 -6.104177952 3.763251066
lowerback  -7.254809856 -1.436769962 -0.673824966
upperback  -4.286489964 -1.430719972 -3.257139921
thorax  -0.4256289899 -0.5582079887 -3.077909946
lowerneck  -3.867799997 -15.80379963 -12.67679977
upperneck  14.25879955 -21.90169907 11.87919998
head  7.745029926 -10.31610012 3.642829895
lclavicle  0 -4.497500157e-015 -2.743230041e-014
lhumerus  -50.21070099 29.71870041 62.3091011
lradius  0.001595117152 -6.507048965e-006 30.55023384
lwrist  4.824992743e-007 -3.790274832e-007 -28.44020081
lhand  -4.416428369e-031 -36.91350174 -10.64080048
lfingers  90 7.125020027 -90
lthumb  94.81512915 -25.47685724 101.0803591
rclavicle  0 -4.497500157e-015 -2.743230041e-014
rhumerus  -65.45330048 -25.68239784 -37.46780014
rradius  -5.16745672e-007 2.214343908e-008 93.125
rwrist  -0.0001011603963 -0.001600692281 -178.5140076
rhand  -1.766369707e-031 -1.73221004 -7.660349846
rfingers  -90 -7.125020027 -90
rthumb  -86.40242885 -8.048162015 -65.8166305
rfemur  -12.60773182 16.77777672 12.82504845
rtibia  -1.417021275 -1.04986012 21.48376274
rfoot  0.07944571227 -22.05069351 -35.84091949
rtoes  4.07824485 19.59647383 -102.0014944
lfemur  -8.030150414 -17.00088882 -20.545578
ltibia  2.30716753 -1.454814315 15.05553532
lfoot  0.8538265824 -22.76451683 38.09874344
ltoes  -8.647908829 -18.10311436 -116.0802277
44
root  34.78683712 36.50417478 -14.93163822 8.16882515 -6.145973206 3.813105106
lowerback  -7.357039928 -1.477669954 -0.7508657575
upperback  -4.271399975 -1.477810025 -3.218209982
thorax  -0.3524700105 -0.5797240138 -2.999749899
lowerneck  -3.835109949 -15.82590008 -12.60690022
upperneck  14.17590046 -21.93490028 11.87819958
head  7.708159924 -10.33320045 3.633330107
lclavicle  0 -4.497500157e-015 -2.743230041e-014
lhumerus  -50.23479843 29.7887001 62.25400162
lradius  0.001595117152 -6.507048965e-006 30.56369591
lwrist  4.824992743e-007 -3.790274832e-007 -28.42889977
lhand  -4.414247436e-031 -36.87580109 -10.71479988
lfingers  90 7.125020027 -90
lthumb  94.81315021 -25.55077254 101.0467355
rclavicle  0 -4.497500157e-015 -2.743230041e-014
rhumerus  -65.47519684 -25.72850037 -36.34420013
rradius  -5.16745672e-007 2.214343908e-008 94.50189972
rwrist  -0.0001011603963 -0.001600692281 -178.9720001
rhand  -1.766566893e-031 -1.932150006 -7.462729931
rfingers  -90 -7.125020027 -90
rthumb  -86.3585988 -8.217829364 -65.99982341
rfemur  -12.63126373 16.83364105 12.78192329
rtibia  -1.452391505 -1.072860718 21.57359695
rfoot  0.03110761754 -22.09155083 -35.87251282
rtoes  4.064607469 19.59920021 -101.9608363
lfemur  -7.985607147 -16.99941826 -20.6294632
ltibia  2.33060813 -1.4917171 15.0198555
lfoot  0.843429625 -22.70133781 38.10111618
ltoes  -8.649330317 -18.10245296 -116.0848025
45
root  34.78203721 36.5028892 -14.94020026 8.20960331 -6.150892735 3.794594526
lowerback  -7.391439915 -1.491819978 -0.7628173232
upperback  -4.247990131 -1.494320035 -3.237449884
thorax  -0.3102869987 -0.5878019929 -3.015120029
lowerneck  -3.770220041 -15.89109993 -12.63210011
upperneck  14.13090038 -22.03609848 11.94299984
head  7.706059933 -10.38140011 3.64677
lclavicle  0 -4.497500157e-015 -2.743230041e-014
lhumerus  -50.24269867 29.80559921 62.22930145
lradius  0.001595117152 -6.507048965e-006 30.56892586
lwrist  4.824992743e-007 -3.790274832e-007 -28.43289948
lhand  -4.413496317e-031 -36.8628006 -10.70259953
lfingers  90 7.125020027 -90
lthumb  94.80449005 -25.53925537 101.0317809
rclavicle  0 -4.497500157e-015 -2.743230041e-014
rhumerus  -65.49040222 -25.55940247 -35.22919464
rradius  -5.16745672e-007 2.214343908e-008 95.83370209
rwrist  -0.0001011603963 -0.001600692281 -179.6300049
rhand  -1.766219276e-031 -1.562540054 -7.768740177
rfingers  -90 -7.125020027 -90
rthumb  -86.41565794 -7.958748594 -65.6576747
rfemur  -12.70563984 16.77123451 12.79817867
rtibia  -1.463972449 -1.102313042 21.60113525
rfoot  0.005017386749 -22.15924454 -35.86120224
rtoes  4.072811509 19.59756121 -101.9852949
lfemur  -8.136306763 -17.06836891 -20.53604889
ltibia  2.241605043 -1.502193809 15.16481686
lfoot  0.8554459214 -22.73338127 38.14575195
ltoes  -8.689767829 -18.08358083 -116.2150106
46
root  34.78174285 36.50036909 -14.9442117 8.219960213 -6.216622353 3.803999186
lowerback  -7.396558762 -1.497513056 -0.789970994
upperback  -4.254680157 -1.494379997 -3.225680113
thorax  -0.3132269979 -0.589833498 -2.987230062
lowerneck  -3.664989948 -15.94099998 -12.70100021
upperneck  14.05150032 -22.11370087 12.01029968
head  7.68817997 -10.42420006 3.673919916
lclavicle  0 -4.497500157e-015 -2.743230041e-014
lhumerus  -50.28630066 29.86249924 62.18880081
lradius  0.001595117152 -6.507048965e-006 30.55249977
lwrist  4.824992743e-007 -3.790274832e-007 -28.49940109
lhand  -4.411822586e-031 -36.83380127 -10.68150043
lfingers  90 7.125020027 -90
lthumb  94.78643495 -25.51960645 100.9988485
rclavicle  0 -4.497500157e-015 -2.743230041e-014
rhumerus  -65.42500305 -25.34410095 -34.14929962
rradius  -5.16745672e-007 2.214343908e-008 97.1187973
rwrist  -0.0001011603963 -0.001600692281 -179.923996
rhand  -3.532520727e-031 -1.610659957 -7.88409996
rfingers  -90 -7.125020027 -90
rthumb  -86.47255464 -7.850887586 -65.71107238
rfemur  -12.74040985 16.74573708 12.77495384
rtibia  -1.469259381 -1.136843562 21.61246109
rfoot  0.01220641751 -22.21299744 -35.78899002
rtoes  4.060096623 19.60009991 -101.947389
lfemur  -8.169953346 -16.98775482 -20.53111649
ltibia  2.230683804 -1.504670382 15.1843586
lfoot  0.8605695963 -22.7358799 38.13723373
ltoes  -8.686120437 -18.0852876 -116.2032606
